<svg xmlns="http://www.w3.org/2000/svg" viewBox="0 0 512 128"><g fill-rule="evenodd"><path d="M30.3 113.2a61.9 61.9 0 0 1 25.3-110v8.5a53.8 53.8 0 0 0-28.8 86.7l3.3-9.3a45.5 45.5 0 0 1 33.8-70.4V2.1L68 2a62 62 0 0 1 37.8 111.2l-2.1-6-.8-2.3-2.7-7.4-.3-1-2.8-7.7-.4-1a37 37 0 0 0-16.3-58.9v-8.7A45.5 45.5 0 0 1 106 89.1l3.3 9.3a53.7 53.7 0 0 0-37.1-88V27l-4.2-.2a37.2 37.2 0 0 0-28.6 61l-3.2 8.7-.8 2.2-2.2 6.2-1.2 3.3-1.7 5" fill="#2491eb"/><path d="M98.7 117.9a61.7 61.7 0 0 1-61.4 0l2.9-8 8.7-24.2A28.9 28.9 0 0 1 68 35a29 29 0 0 1 19.2 50.6L96 110l1.1 3 1.7 4.9zM58.3 83.8L56 90.3 50.4 106l-2.8 7.8a53.6 53.6 0 0 0 40.9 0l-2.6-7-5.8-16.4-.1-.3-2.2-6-.5-1.5a20.7 20.7 0 1 0-18.5 0l-.5 1.3" fill="#36434f"/></g><g fill-rule="evenodd"><path d="M166.8 68.7a17.7 17.7 0 0 0 16.6-11.5 20 20 0 0 0 1.4-7.4v-.1c0-2.6-.5-5.1-1.4-7.4a18.3 18.3 0 0 0-9.5-10.1c-2.2-1-4.6-1.5-7.3-1.5A17.7 17.7 0 0 0 150 42.2a20.2 20.2 0 0 0 0 14.9 18.4 18.4 0 0 0 9.6 10c2.2 1 4.6 1.6 7.3 1.6zm109.2-42h4.8l29 36.9v-37h5.1v46.1h-4.1L281 35v37.8h-5v-46zm-40.2 0H269v4.6H241v15.9H266v4.7H241V68h28.4v4.7h-33.6v-46zm-23.5 25c2 0 3.7-.2 5.2-.6a12 12 0 0 0 4-2.1 9.1 9.1 0 0 0 3.5-7.4v-.1c0-3.3-1.1-5.8-3.4-7.5a14.6 14.6 0 0 0-9-2.5h-11.7v20.3h11.4zm-16.6-25H213c2.5 0 5 .3 7 1 2.2.7 4 1.6 5.5 2.9 1.5 1.2 2.7 2.7 3.5 4.5.8 1.8 1.2 3.9 1.2 6.2a14 14 0 0 1-1.5 6.6 14 14 0 0 1-3.9 4.7 17.1 17.1 0 0 1-5.7 2.9 25 25 0 0 1-7 1H201v16.2h-5.2v-46zm-29 46.8a23.4 23.4 0 0 1-17-7 24.7 24.7 0 0 1-6.4-16.6v-.2a24.5 24.5 0 0 1 6.4-16.7 23.1 23.1 0 0 1 17-7.1 23.4 23.4 0 0 1 17 7 24.7 24.7 0 0 1 4.7 25.8 23.3 23.3 0 0 1-12.2 12.9c-2.9 1.2-6 1.9-9.6 1.9" fill="#36434f"/><path d="M340 54.5l-17.8-27.8h11.9L345 45l11.1-18.4h11.6L350 54.4v18.3h-10.2V54.5zm141.6 9.7c2 0 3.8-.4 5.5-1.2 1.8-.7 3.2-1.7 4.4-3a14.6 14.6 0 0 0 3.9-10.2v-.1c0-2-.4-3.9-1-5.6a14 14 0 0 0-7.4-7.7 13.8 13.8 0 0 0-11.2 0c-1.7.7-3.1 1.7-4.3 3a14.6 14.6 0 0 0-3.9 10.2c0 2 .3 4 1 5.7a13.9 13.9 0 0 0 13 8.9zm-.2 9.3a25.1 25.1 0 0 1-17.5-7 22.7 22.7 0 0 1-6.9-16.7v-.1a23.3 23.3 0 0 1 7-16.8c2.1-2.2 4.7-4 7.7-5.2 3-1.2 6.3-1.8 9.9-1.8a25.1 25.1 0 0 1 17.5 7 22.7 22.7 0 0 1 6.9 16.7 23.3 23.3 0 0 1-7 16.9 25.4 25.4 0 0 1-17.6 7zM420 26.7H430v36.9h23v9.1h-33.1v-46zm-30.3 37.5c2 0 3.9-.4 5.6-1.2 1.7-.7 3.1-1.7 4.3-3a14.6 14.6 0 0 0 3.9-10.2v-.1c0-2-.4-3.9-1-5.6a14 14 0 0 0-7.4-7.7c-1.7-.8-3.5-1.2-5.6-1.2a12.9 12.9 0 0 0-10 4.2 14.6 14.6 0 0 0-3.8 10.2c0 2 .4 4 1 5.7a13.9 13.9 0 0 0 13 8.9zm-.2 9.3a25.1 25.1 0 0 1-17.5-7 22.7 22.7 0 0 1-6.9-16.7v-.1a23.3 23.3 0 0 1 7-16.8c2.1-2.2 4.7-4 7.7-5.2 3-1.2 6.3-1.8 9.9-1.8a25.1 25.1 0 0 1 17.5 7 22.7 22.7 0 0 1 6.9 16.7 23.3 23.3 0 0 1-7 16.9 25.4 25.4 0 0 1-17.6 7" fill="#2491eb"/></g><g style="line-height:125%;-inkscape-font-specification:Roboto" font-size="320" font-weight="400" letter-spacing="0" word-spacing="0" fill="#36434f" font-family="Roboto"><path d="M312.6 116.6V98.2h-3.3v-2.8h3.3v-2.7c0-2.3.6-4 1.7-5.2 1.2-1.2 2.8-1.8 5-1.8l1.2.1 1.5.3-.4 2.8a6.4 6.4 0 0 0-2-.2c-1 0-2 .4-2.5 1-.6.7-.8 1.7-.8 3v2.7h4.5v2.8h-4.5v18.4h-3.7M323.6 105.8c0-3.2.9-5.8 2.5-7.8 1.7-2 4-3 7-3s5.2 1 7 3c1.6 2 2.4 4.6 2.4 7.8v.5c0 3.2-.8 5.7-2.5 7.7-1.6 2-4 3-6.9 3-3 0-5.3-1-7-3-1.6-2-2.5-4.5-2.5-7.7v-.5m3.7.5c0 2.3.5 4.1 1.4 5.6 1 1.4 2.4 2.1 4.4 2.1a5 5 0 0 0 4.4-2.1 10 10 0 0 0 1.4-5.6v-.5c0-2.3-.5-4.1-1.5-5.6a4.9 4.9 0 0 0-4.3-2.2c-2 0-3.4.7-4.4 2.2a10 10 0 0 0-1.4 5.6v.5M357.4 98.7l-2.1-.1c-1.1 0-2 .2-2.7.7-.8.6-1.3 1.3-1.7 2.2v15h-3.6v-21h3.2l.4 3c.6-1 1.3-2 2.2-2.5a5.4 5.4 0 0 1 4-.9l.8.2-.5 3.4"/><path d="M387.6 109h-12l-2.8 7.6H369l11-28.5h3.1l10.8 28.5h-3.7l-2.7-7.6m-11-3h9.9l-4.9-13.4-5 13.5M401 95.4l.2 3.2c.7-1.1 1.6-2 2.6-2.6 1.1-.6 2.3-1 3.7-1 2.3 0 4.1.7 5.3 2 1.3 1.3 1.9 3.4 1.9 6.2v13.4H411v-13.3c0-2-.3-3.3-1-4-.8-.9-2-1.2-3.5-1.2a5.6 5.6 0 0 0-5.2 3.1v15.4h-3.6V95.4h3.2M419.4 106.4c0-3.5.7-6.2 2.2-8.3a7 7 0 0 1 6-3c1.4 0 2.5.2 3.4.6 1 .5 1.8 1.2 2.5 2.1V86.1h3.7v30.5H434l-.3-2.7a7 7 0 0 1-2.5 2.3c-1 .5-2.2.8-3.6.8-2.6 0-4.6-1-6-2.8a11.8 11.8 0 0 1-2.2-7.4v-.4m3.6.4c0 2.2.5 4 1.4 5.2.8 1.3 2.2 2 4.1 2 1.3 0 2.3-.3 3-.8.9-.6 1.5-1.3 2-2.3V101c-.5-1-1.1-1.7-2-2.2-.7-.6-1.7-.8-3-.8-1.8 0-3.2.7-4.1 2.2a12 12 0 0 0-1.4 6v.5M453.1 98.7l-2.1-.1c-1.1 0-2 .2-2.7.7-.8.6-1.3 1.3-1.7 2.2v15H443v-21h3.2l.4 3c.6-1 1.3-2 2.2-2.5a5.4 5.4 0 0 1 4-.9l.8.2-.5 3.4M455.6 105.8c0-3.2.8-5.8 2.5-7.8s4-3 7-3c2.9 0 5.2 1 6.9 3 1.6 2 2.5 4.6 2.5 7.8v.5c0 3.2-.8 5.7-2.5 7.7s-4 3-7 3-5.2-1-6.9-3c-1.7-2-2.5-4.5-2.5-7.7v-.5m3.6.5c0 2.3.5 4.1 1.5 5.6 1 1.4 2.4 2.1 4.4 2.1a5 5 0 0 0 4.3-2.1 10 10 0 0 0 1.5-5.6v-.5c0-2.3-.5-4.1-1.5-5.6A4.9 4.9 0 0 0 465 98c-2 0-3.4.7-4.3 2.2a10 10 0 0 0-1.5 5.6v.5M483.1 116.6h-3.6V95.4h3.6v21.2m0-26.6h-3.6V86h3.6V90M488.3 106.4c0-3.5.7-6.2 2-8.3a7 7 0 0 1 6.2-3c1.3 0 2.4.2 3.4.6 1 .5 1.7 1.2 2.4 2.1V86.1h3.7v30.5h-3.2l-.3-2.7a7 7 0 0 1-2.5 2.3c-1 .5-2.2.8-3.5.8-2.7 0-4.7-1-6.1-2.8a11.8 11.8 0 0 1-2.1-7.4v-.4m3.6.4c0 2.2.4 4 1.3 5.2.9 1.3 2.3 2 4.2 2 1.2 0 2.2-.3 3-.8.8-.6 1.4-1.3 2-2.3V101a5.3 5.3 0 0 0-5-3c-2 0-3.3.7-4.2 2.2a12 12 0 0 0-1.3 6v.5" fill="#2491eb"/></g></svg>
